# xmcd
#
# Track frame offsets:
#	150
#	12803
#	22943
#	35411
#	46114
#	55463
#	69733
#	78814
#	87398
#	92043
#	101135
#	112553
#	126223
#
# Disc length: 1805 seconds
#
# Revision: 1
# Processed by: cddbd v1.5.1PL0 Copyright (c) Steve Scherf et al.
# Submitted via: audiograbber 1.83.01
#
DISCID=97070b0d
DTITLE=Jimmy Phillips - REBEL SOLDIER
DYEAR=2004
DGENRE=FOLK
TTITLE0=The Rebel Soldier
TTITLE1=La Belle Catherine
TTITLE2=I`am A Good Ol`rebel
TTITLE3=My Old Kentucky Home
TTITLE4=Uncle Joe
TTITLE5=Shiloh`s Hill
TTITLE6=Waiting For The Federals
TTITLE7=The Parting Glass
TTITLE8=Red Haired Boy
TTITLE9=Talking To Grandpa
TTITLE10=Rosin The Bow
TTITLE11=Bright Sunny South
TTITLE12=8th Of January/Liberty
EXTD=JImmy Phillips - Guitars,vocals,mandolin,fiddle,mountain dulcimer and drum
EXTD=\n\nAll songs and tunes are in Public Domian
EXTT0=
EXTT1=
EXTT2=
EXTT3=
EXTT4=
EXTT5=
EXTT6=
EXTT7=
EXTT8=
EXTT9=
EXTT10=
EXTT11=
EXTT12=
PLAYORDER=
